<?xml version="1.0" encoding="UTF-8" standalone="no"?>
<!DOCTYPE svg PUBLIC "-//W3C//DTD SVG 1.1//EN"
 "http://www.w3.org/Graphics/SVG/1.1/DTD/svg11.dtd">
<!-- Generated by graphviz version 12.2.1 (20241206.2353)
 -->
<!-- Title: fullGraph Pages: 1 -->
<svg width="1369pt" height="434pt"
 viewBox="0.00 0.00 1369.20 433.50" xmlns="http://www.w3.org/2000/svg" xmlns:xlink="http://www.w3.org/1999/xlink">
<g id="graph0" class="graph" transform="scale(1 1) rotate(0) translate(4 429.5)">
<title>fullGraph</title>
<polygon fill="white" stroke="none" points="-4,4 -4,-429.5 1365.2,-429.5 1365.2,4 -4,4"/>
<g id="clust1" class="cluster">
<title>cluster_expressionGraph</title>
<polygon fill="none" stroke="black" points="106.75,-235.5 106.75,-417.5 815.75,-417.5 815.75,-235.5 106.75,-235.5"/>
<text text-anchor="middle" x="461.25" y="-400.2" font-family="Times,serif" font-size="14.00">expressionGraph</text>
</g>
<!-- Node_0xc0001890a0 -->
<g id="node1" class="node">
<title>Node_0xc0001890a0</title>
<polygon fill="none" stroke="#ff0000" points="122.5,-357.75 122.5,-381 285.25,-381 285.25,-357.75 122.5,-357.75"/>
<text text-anchor="start" x="199.75" y="-364.7" font-family="monospace" font-size="14.00">2</text>
<polygon fill="none" stroke="#ff0000" points="285.25,-357.75 285.25,-381 613,-381 613,-357.75 285.25,-357.75"/>
<text text-anchor="start" x="321.25" y="-364.7" font-family="monospace" font-size="14.00">A × b(%0, %1) :: Vector float64</text>
<polygon fill="none" stroke="#ff0000" points="122.5,-334.5 122.5,-357.75 285.25,-357.75 285.25,-334.5 122.5,-334.5"/>
<text text-anchor="start" x="195.62" y="-341.45" font-family="monospace" font-size="14.00">Op</text>
<polygon fill="none" stroke="#ff0000" points="285.25,-334.5 285.25,-357.75 613,-357.75 613,-334.5 285.25,-334.5"/>
<text text-anchor="start" x="288.25" y="-341.45" font-family="monospace" font-size="14.00">A × b :: Matrix a → Vector a → Vector a</text>
<polygon fill="none" stroke="#ff0000" points="122.5,-311.25 122.5,-334.5 285.25,-334.5 285.25,-311.25 122.5,-311.25"/>
<text text-anchor="start" x="183.25" y="-318.2" font-family="monospace" font-size="14.00">Shape</text>
<polygon fill="none" stroke="#ff0000" points="285.25,-311.25 285.25,-334.5 613,-334.5 613,-311.25 285.25,-311.25"/>
<text text-anchor="start" x="436.75" y="-318.2" font-family="monospace" font-size="14.00">(2)</text>
<polygon fill="none" stroke="#ff0000" points="122.5,-288 122.5,-311.25 285.25,-311.25 285.25,-288 122.5,-288"/>
<text text-anchor="start" x="125.5" y="-294.95" font-family="monospace" font-size="14.00">Overwrites Input &#45;1</text>
<polygon fill="none" stroke="#ff0000" points="285.25,-288 285.25,-311.25 613,-311.25 613,-288 285.25,-288"/>
<text text-anchor="start" x="399.62" y="-294.95" font-family="monospace" font-size="14.00">Data On: CPU</text>
<polygon fill="none" stroke="#ff0000" points="122.5,-247.5 122.5,-288 285.25,-288 285.25,-247.5 122.5,-247.5"/>
<text text-anchor="start" x="183.25" y="-263.07" font-family="monospace" font-size="14.00">Value</text>
<polygon fill="none" stroke="#ff0000" points="285.25,-247.5 285.25,-288 613,-288 613,-247.5 285.25,-247.5"/>
<text text-anchor="start" x="391.38" y="-271.7" font-family="monospace" font-size="14.00">Vector (2) [1]</text>
<text text-anchor="start" x="407.88" y="-254.45" font-family="monospace" font-size="14.00">[9.4 &#160;3.4]</text>
</g>
<!-- Node_0xc000188ee0 -->
<g id="node2" class="node">
<title>Node_0xc000188ee0</title>
<polygon fill="lightyellow" stroke="none" points="8,-4 8,-131.5 333.5,-131.5 333.5,-4 8,-4"/>
<polygon fill="none" stroke="#00ff00" points="8,-108.25 8,-131.5 170.75,-131.5 170.75,-108.25 8,-108.25"/>
<text text-anchor="start" x="85.25" y="-115.2" font-family="monospace" font-size="14.00">0</text>
<polygon fill="none" stroke="#00ff00" points="170.75,-108.25 170.75,-131.5 333.5,-131.5 333.5,-108.25 170.75,-108.25"/>
<text text-anchor="start" x="173.75" y="-115.2" font-family="monospace" font-size="14.00">W :: Matrix float64</text>
<polygon fill="none" stroke="#00ff00" points="8,-85 8,-108.25 170.75,-108.25 170.75,-85 8,-85"/>
<text text-anchor="start" x="68.75" y="-91.95" font-family="monospace" font-size="14.00">Shape</text>
<polygon fill="none" stroke="#00ff00" points="170.75,-85 170.75,-108.25 333.5,-108.25 333.5,-85 170.75,-85"/>
<text text-anchor="start" x="227.38" y="-91.95" font-family="monospace" font-size="14.00">(2, 2)</text>
<polygon fill="none" stroke="#00ff00" points="8,-61.75 8,-85 170.75,-85 170.75,-61.75 8,-61.75"/>
<text text-anchor="start" x="11" y="-68.7" font-family="monospace" font-size="14.00">Overwrites Input &#45;1</text>
<polygon fill="none" stroke="#00ff00" points="170.75,-61.75 170.75,-85 333.5,-85 333.5,-61.75 170.75,-61.75"/>
<text text-anchor="start" x="202.62" y="-68.7" font-family="monospace" font-size="14.00">Data On: CPU</text>
<polygon fill="none" stroke="#00ff00" points="8,-4 8,-61.75 170.75,-61.75 170.75,-4 8,-4"/>
<text text-anchor="start" x="68.75" y="-28.2" font-family="monospace" font-size="14.00">Value</text>
<polygon fill="none" stroke="#00ff00" points="170.75,-4 170.75,-61.75 333.5,-61.75 333.5,-4 170.75,-4"/>
<text text-anchor="start" x="173.75" y="-45.45" font-family="monospace" font-size="14.00">Matrix (2, 2) [2 1]</text>
<text text-anchor="start" x="210.88" y="-28.2" font-family="monospace" font-size="14.00">⎡0.9 &#160;0.7⎤</text>
<text text-anchor="start" x="210.88" y="-10.95" font-family="monospace" font-size="14.00">⎣0.4 &#160;0.2⎦</text>
</g>
<!-- Node_0xc0001890a0&#45;&gt;Node_0xc000188ee0 -->
<g id="edge1" class="edge">
<title>Node_0xc0001890a0:anchor&#45;&gt;Node_0xc000188ee0:anchor</title>
<path fill="none" stroke="black" d="M311.56,-243.51C286.51,-212.42 256.95,-175.73 231.39,-144.02"/>
<polygon fill="black" stroke="black" points="234.25,-141.98 225.25,-136.39 228.8,-146.37 234.25,-141.98"/>
<text text-anchor="middle" x="304.44" y="-230.21" font-family="Times,serif" font-size="14.00"> 0 </text>
</g>
<!-- Node_0xc000188fc0 -->
<g id="node3" class="node">
<title>Node_0xc000188fc0</title>
<polygon fill="lightyellow" stroke="none" points="422,-12.62 422,-122.88 747.5,-122.88 747.5,-12.62 422,-12.62"/>
<polygon fill="none" stroke="#00ff00" points="422,-99.62 422,-122.88 584.75,-122.88 584.75,-99.62 422,-99.62"/>
<text text-anchor="start" x="499.25" y="-106.58" font-family="monospace" font-size="14.00">1</text>
<polygon fill="none" stroke="#00ff00" points="584.75,-99.62 584.75,-122.88 747.5,-122.88 747.5,-99.62 584.75,-99.62"/>
<text text-anchor="start" x="587.75" y="-106.58" font-family="monospace" font-size="14.00">x :: Vector float64</text>
<polygon fill="none" stroke="#00ff00" points="422,-76.38 422,-99.62 584.75,-99.62 584.75,-76.38 422,-76.38"/>
<text text-anchor="start" x="482.75" y="-83.33" font-family="monospace" font-size="14.00">Shape</text>
<polygon fill="none" stroke="#00ff00" points="584.75,-76.38 584.75,-99.62 747.5,-99.62 747.5,-76.38 584.75,-76.38"/>
<text text-anchor="start" x="653.75" y="-83.33" font-family="monospace" font-size="14.00">(2)</text>
<polygon fill="none" stroke="#00ff00" points="422,-53.12 422,-76.38 584.75,-76.38 584.75,-53.12 422,-53.12"/>
<text text-anchor="start" x="425" y="-60.08" font-family="monospace" font-size="14.00">Overwrites Input &#45;1</text>
<polygon fill="none" stroke="#00ff00" points="584.75,-53.12 584.75,-76.38 747.5,-76.38 747.5,-53.12 584.75,-53.12"/>
<text text-anchor="start" x="616.62" y="-60.08" font-family="monospace" font-size="14.00">Data On: CPU</text>
<polygon fill="none" stroke="#00ff00" points="422,-12.62 422,-53.12 584.75,-53.12 584.75,-12.62 422,-12.62"/>
<text text-anchor="start" x="482.75" y="-28.2" font-family="monospace" font-size="14.00">Value</text>
<polygon fill="none" stroke="#00ff00" points="584.75,-12.62 584.75,-53.12 747.5,-53.12 747.5,-12.62 584.75,-12.62"/>
<text text-anchor="start" x="608.38" y="-36.83" font-family="monospace" font-size="14.00">Vector (2) [1]</text>
<text text-anchor="start" x="624.88" y="-19.57" font-family="monospace" font-size="14.00">[ &#160;5 &#160;&#160;&#160;7]</text>
</g>
<!-- Node_0xc0001890a0&#45;&gt;Node_0xc000188fc0 -->
<g id="edge2" class="edge">
<title>Node_0xc0001890a0:anchor&#45;&gt;Node_0xc000188fc0:anchor</title>
<path fill="none" stroke="black" d="M429.64,-243.51C459.9,-209.42 496.13,-168.6 525.96,-134.99"/>
<polygon fill="black" stroke="black" points="528.37,-137.54 532.39,-127.74 523.14,-132.9 528.37,-137.54"/>
<text text-anchor="middle" x="422.52" y="-230.21" font-family="Times,serif" font-size="14.00"> 1 </text>
</g>
<!-- outsideRoot -->
<!-- insideInputs -->
<!-- outsideRoot&#45;&gt;insideInputs -->
<!-- outsideExprG -->
<!-- outsideRoot&#45;&gt;outsideExprG -->
<!-- insideExprG -->
<!-- insideInputs&#45;&gt;insideExprG -->
<!-- outsideExprG&#45;&gt;insideExprG -->
</g>
</svg>
